<?xml version="1.0" encoding="UTF-8"?>
<svg id="Layer_1" xmlns="http://www.w3.org/2000/svg" viewBox="0 0 1018 1018.12" width="25px" height="25px">
  <path d="M224.68,0c12.82,4.98,19.91,15.73,26.18,26.91,17.48,31.14,34.58,62.5,51.86,93.76,15.52,28.08,30.73,56.35,49.61,82.42,1.55,2.14,2.92,4.41,4.34,6.65,19.43,30.46,17.91,44.71-6.72,71.27-22.21,23.95-49.47,41.93-73.81,63.35-10.69,9.4-21.25,18.94-29.74,30.54-7.03,9.59-8.89,19.7-4.43,30.83,2.46,6.13,4.33,12.59,7.49,18.33,51.8,94.03,112.27,181.11,197.46,248.76,41.11,32.65,85.5,60.07,130.7,86.42,9.72,5.67,19.56,10.93,29.95,15.38,15.18,6.49,28.17,4.02,40.34-6.63,16.54-14.47,30.74-31.05,44.09-48.38,14.77-19.18,29.99-37.94,48.04-54.19,23.84-21.45,38.55-23.81,64.77-6.01,55.71,37.83,115.73,67.98,174.35,100.64,6.93,3.86,13.63,8.15,20.32,12.41,8.14,5.18,14.95,11.61,18.52,20.88v31.81c-2.84,21.6-7.56,42.71-13.95,63.59-7.05,23.01-19.95,41.73-38.35,56.6-20.67,16.71-42.66,30.9-65.96,42.53,0,0-36.57,18.28-67.34,25.55-16.98,4.01-32.29,4.57-33.11,4.59-4.15.13-7.59.08-9.94,0h-31.81c-3.65.11-9.18.21-15.91,0-51.33-1.57-85.82-20.96-140.51-40.76-32.7-11.84-65.02-24.49-96.32-39.87-45.77-22.48-87.3-51.3-127.48-82.31-50.99-39.34-97.59-83.57-141.82-130.18-53.46-56.33-102.27-116.47-140.51-184.44-14.78-26.27-28.15-53.33-38.58-81.69-14.85-40.4-30.95-80.34-43.79-121.47-6.22-19.92-10.33-40.21-12.62-60.91v-57.66c4.72-58.71,31.24-108.35,64.06-155.56,21.44-30.83,51.13-47.8,87.08-55.84,13.83-3.09,27.8-4.99,41.72-7.31h31.81Z" fill="#0d75b8"/>
</svg>